<?xml version="1.0" encoding="utf-8"?>
<!-- Generator: Adobe Illustrator 26.0.1, SVG Export Plug-In . SVG Version: 6.00 Build 0)  -->
<svg version="1.1" id="Layer_1" xmlns="http://www.w3.org/2000/svg" xmlns:xlink="http://www.w3.org/1999/xlink" x="0px" y="0px"
	 viewBox="0 0 512 512" style="enable-background:new 0 0 512 512;" xml:space="preserve">
<style type="text/css">
	.st0{display:none;fill:#CCCCCC;}
	.st1{fill:#CCCCCC;}
</style>
<path class="st0" d="M504,256C504,119,393,8,256,8S8,119,8,256c0,123.8,90.7,226.4,209.2,245V327.7h-63V256h63v-54.6
	c0-62.2,37-96.5,93.7-96.5c27.1,0,55.5,4.8,55.5,4.8v61h-31.3c-30.8,0-40.4,19.1-40.4,38.7V256h68.8l-11,71.7h-57.8V501
	C413.3,482.4,504,379.8,504,256z"/>
<g>
	<path class="st1" d="M217.2,266c9.8,11.1,24,17.5,38.8,17.5c14.8,0,29-6.4,38.8-17.5L464.4,73.5c1.4-1.6,3.1-2.8,4.8-3.8
		c-7.2-3.1-15.1-4.9-23.5-4.9H66.2c-8,0-15.6,1.6-22.5,4.5c0.3,0.3,0.6,0.5,0.9,0.8L217.2,266z"/>
	<path class="st1" d="M495.4,92.3c-0.8,2-1.8,3.9-3.3,5.6L322.4,290.4c-16.8,19.1-41,30-66.4,30c-25.4,0-49.6-10.9-66.4-30L17,94.5
		c-0.3-0.4-0.6-0.8-0.9-1.3c-5.3,8.8-8.5,19.1-8.5,30.2v265.1c0,32.4,26.3,58.6,58.6,58.6h379.5c32.4,0,58.6-26.2,58.6-58.6V123.4
		C504.4,112,501.1,101.3,495.4,92.3z"/>
</g>
</svg>
