<svg width="31" height="30" viewBox="0 0 31 30" fill="none" xmlns="http://www.w3.org/2000/svg">
<g id="&#240;&#159;&#166;&#134; icon &#34;world&#34;">
<path id="Vector" d="M15.4209 0C7.1499 0 0.420898 6.729 0.420898 15C0.420898 23.271 7.1499 30 15.4209 30C23.6919 30 30.4209 23.271 30.4209 15C30.4209 6.729 23.6919 0 15.4209 0ZM3.4209 15C3.4209 13.6515 3.6549 12.357 4.0674 11.1465L6.4209 13.5L9.4209 16.5V19.5L12.4209 22.5L13.9209 24V26.8965C8.0124 26.154 3.4209 21.108 3.4209 15ZM24.9159 22.3095C23.9364 21.5205 22.4514 21 21.4209 21V19.5C21.4209 17.844 20.0769 16.5 18.4209 16.5H12.4209V13.5V12C14.0769 12 15.4209 10.656 15.4209 9V7.5H16.9209C18.5769 7.5 19.9209 6.156 19.9209 4.5V3.8835C24.3129 5.667 27.4209 9.975 27.4209 15C27.4209 17.7525 26.4804 20.283 24.9159 22.3095Z" fill="#AAAAAA"/>
</g>
</svg>
