<svg width="29" height="30" viewBox="0 0 29 30" fill="none" xmlns="http://www.w3.org/2000/svg">
<g id="&#240;&#159;&#166;&#134; icon &#34;user&#34;">
<path id="Vector" d="M14.2105 0C9.85737 0 6.31579 3.54158 6.31579 7.89474C6.31579 12.2479 9.85737 15.7895 14.2105 15.7895C18.5637 15.7895 22.1053 12.2479 22.1053 7.89474C22.1053 3.54158 18.5637 0 14.2105 0ZM14.2105 12.6316C11.5989 12.6316 9.47369 10.5063 9.47369 7.89474C9.47369 5.28316 11.5989 3.15789 14.2105 3.15789C16.8221 3.15789 18.9474 5.28316 18.9474 7.89474C18.9474 10.5063 16.8221 12.6316 14.2105 12.6316ZM28.4211 30V28.4211C28.4211 22.3279 23.4616 17.3684 17.3684 17.3684H11.0526C4.9579 17.3684 0 22.3279 0 28.4211V30H3.1579V28.4211C3.1579 24.0679 6.69947 20.5263 11.0526 20.5263H17.3684C21.7216 20.5263 25.2632 24.0679 25.2632 28.4211V30H28.4211Z" fill="#AAAAAA"/>
</g>
</svg>
